# xmcd
#
# Track frame offsets: 
#        150
#        15415
#        36085
#        55900
#        73117
#        89122
#        102475
#        116307
#        128327
#        186057
#        200140
#        210647
#        230687
#        253057
#        270395
#        285180
#        303040
#        327127
#        343605
#
# Disc length: 4732 seconds
#
# Revision: 1
# Processed by: cddbd v1.5.2PL0 Copyright (c) Steve Scherf et al.
# Submitted via: ExactAudioCopyFreeDBPlugin 1.0
#
DISCID=0b127a13
DTITLE=O.V. Wright - The Complete O.V. Wright on Hi Records
DYEAR=1999
DGENRE=Soul
TTITLE0=Rhymes
TTITLE1=Without You
TTITLE2=Into Something (Can't Shake Loose)
TTITLE3=I Feel Love Growin'
TTITLE4=Precious, Precious
TTITLE5=The Time We Have
TTITLE6=You Gotta Have Love
TTITLE7=Trying to Live My Life Without You
TTITLE8=Medley:  God Blessed Our Love - When a Man Loves a Woman - Tha
TTITLE8=t's How Strong My Love Is
TTITLE9=The Bottom Line
TTITLE10=I Don't Do Windows
TTITLE11=That's the Way I Fell About Cha'
TTITLE12=Your Good Thing is About to End
TTITLE13=Let's Straighten it Out
TTITLE14=I Don't Know Why
TTITLE15=No Easy Way to Say Goodbye
TTITLE16=A Little More Time
TTITLE17=Since You Left These Arms of Mine
TTITLE18=A Long Road
EXTD=
EXTT0=
EXTT1=
EXTT2=
EXTT3=
EXTT4=
EXTT5=
EXTT6=
EXTT7=
EXTT8=
EXTT9=
EXTT10=
EXTT11=
EXTT12=
EXTT13=
EXTT14=
EXTT15=
EXTT16=
EXTT17=
EXTT18=
PLAYORDER=
